# xmcd
#
# Track frame offsets:
#	150
#	21653
#	38579
#	67256
#	93202
#	111283
#	134005
#	157626
#	174190
#	200335
#	220516
#	238812
#	253423
#	277788
#	304856
#	330756
#
# Disc length: 4644 seconds
#
# Revision: 0
# Processed by: cddbd v1.5.2PL0 Copyright (c) Steve Scherf et al.
# Submitted via: audiograbber 1.83.01
#
DISCID=d9122210
DTITLE=Hjalmar King Blues Band - Down Town Blues
DYEAR=2000
DGENRE=Blues
TTITLE0=I Want Somebody
TTITLE1=Wild About You Baby
TTITLE2=Mean Mistreating Mama
TTITLE3=Blow Wind
TTITLE4=Give Me Back My Wig
TTITLE5=My Kind of Women
TTITLE6=Shake Your Moneymaker
TTITLE7=Baby What's Wrong
TTITLE8=Every Day
TTITLE9=Dust My Broom
TTITLE10=Madison Blues
TTITLE11=Cant't Hold Out
TTITLE12=You Got Where You Want Me
TTITLE13=It's Airight
TTITLE14=About You Baby
TTITLE15=Money Maker
EXTD=
EXTT0=
EXTT1=
EXTT2=
EXTT3=
EXTT4=
EXTT5=
EXTT6=
EXTT7=
EXTT8=
EXTT9=
EXTT10=
EXTT11=
EXTT12=
EXTT13=
EXTT14=
EXTT15=
PLAYORDER=
